HIERARCHY
ROOT Hips
{
  OFFSET 267.745 86.9975 -272.335
  CHANNELS 6 Xposition Yposition Zposition Zrotation Xrotation Yrotation
  JOINT LeftUpLeg
  {
    OFFSET 8.64259 1.95398 -2.38835
    CHANNELS 3 Zrotation Xrotation Yrotation
    JOINT LeftLeg
    {
      OFFSET 43.7702 0 0
      CHANNELS 3 Zrotation Xrotation Yrotation
      JOINT LeftFoot
      {
        OFFSET 40.6238 0 0
        CHANNELS 3 Zrotation Xrotation Yrotation
        JOINT LeftToeBase
        {
          OFFSET 12.7242 0 0
          CHANNELS 3 Zrotation Xrotation Yrotation
          End Site
          {
            OFFSET 0 0 0
          }
        }
      }
    }
  }
  JOINT RightUpLeg
  {
    OFFSET -8.2249 1.95398 -2.59336
    CHANNELS 3 Zrotation Xrotation Yrotation
    JOINT RightLeg
    {
      OFFSET 43.5653 0 0
      CHANNELS 3 Zrotation Xrotation Yrotation
      JOINT RightFoot
      {
        OFFSET 40.6238 0 0
        CHANNELS 3 Zrotation Xrotation Yrotation
        JOINT RightToeBase
        {
          OFFSET 12.7242 0 0
          CHANNELS 3 Zrotation Xrotation Yrotation
          End Site
          {
            OFFSET 0 0 0
          }
        }
      }
    }
  }
  JOINT Spine
  {
    OFFSET 0.165834 0.87714 6.61349
    CHANNELS 3 Zrotation Xrotation Yrotation
    JOINT Spine1
    {
      OFFSET 7.38963 1.71661e-005 0
      CHANNELS 3 Zrotation Xrotation Yrotation
      JOINT Spine2
      {
        OFFSET 11.9445 1.14441e-005 0
        CHANNELS 3 Zrotation Xrotation Yrotation
        JOINT Spine3
        {
          OFFSET 14.7254 4.19617e-005 0
          CHANNELS 3 Zrotation Xrotation Yrotation
          JOINT Spine4
          {
            OFFSET 10.9679 0 0
            CHANNELS 3 Zrotation Xrotation Yrotation
            JOINT RightShoulder
            {
              OFFSET 2.46616 -1.6653 3.69651
              CHANNELS 3 Zrotation Xrotation Yrotation
              JOINT RightArm
              {
                OFFSET 13.0012 0 0
                CHANNELS 3 Zrotation Xrotation Yrotation
                JOINT RightForeArm
                {
                  OFFSET 28.7848 1.52588e-005 0
                  CHANNELS 3 Zrotation Xrotation Yrotation
                  JOINT RightHand
                  {
                    OFFSET 26.5688 1.52588e-005 0
                    CHANNELS 3 Zrotation Xrotation Yrotation
                    End Site
                    {
                      OFFSET 0 0 0
                    }
                  }
                }
              }
            }
            JOINT LeftShoulder
            {
              OFFSET 2.38034 -1.29275 -3.7523
              CHANNELS 3 Zrotation Xrotation Yrotation
              JOINT LeftArm
              {
                OFFSET 16.3182 6.10352e-005 0
                CHANNELS 3 Zrotation Xrotation Yrotation
                JOINT LeftForeArm
                {
                  OFFSET 27.0901 0 0
                  CHANNELS 3 Zrotation Xrotation Yrotation
                  JOINT LeftHand
                  {
                    OFFSET 24.5451 1.52588e-005 0
                    CHANNELS 3 Zrotation Xrotation Yrotation
                    End Site
                    {
                      OFFSET 0 0 0
                    }
                  }
                }
              }
            }
            JOINT Neck
            {
              OFFSET 5.0226 -0.0266342 0
              CHANNELS 3 Zrotation Xrotation Yrotation
              JOINT Head
              {
                OFFSET 6.69364 2.86102e-005 0
                CHANNELS 3 Zrotation Xrotation Yrotation
                End Site
                {
                  OFFSET 0 0 0
                }
              }
            }
          }
        }
      }
    }
  }
}
MOTION
Frames:	14
Frame Time:	0.0416667
36.4658 86.5984 -308.752 -32.5809 -69.2687 -26.6695 163.791 -11.1827 50.616 -102.959 -6.30306 88.7336 -55.9965 14.8156 7.44304 -5.46095 -24.0906 61.7844 168.142 55.77 109.275 -36.0904 15.8297 2.15169 44.6351 18.7432 55.1712 64.8936 40.9191 145.83 1.79171 8.00349 -90.1253 10.8799 3.50948 -0.578979 -0.786476 3.48059 -0.733071 -23.3594 3.52103 0.503868 -3.34675 3.52103 0.503865 98.0566 -40.5354 -89.4137 40.1289 -1.08984 16.8144 23.8627 -4.29035 -116.286 98.0381 51.8322 40.2501 43.8874 -82.8062 -137.933 67.1788 -14.8542 -76.0314 -34.8041 -25.3044 -19.261 10.501 0.0368123 -3.24119 136.004 15.0874 -6.50145 -127.44 12.9379 4.88349 
36.3947 86.4902 -309.534 -32.3521 -69.1944 -26.6155 164.035 -11.7405 50.0515 -102.181 -6.33152 88.8171 -57.1025 14.4614 7.84802 -4.66885 -23.8508 62.1286 168.355 55.8958 109.126 -35.3168 18.3703 1.89387 43.2599 18.7291 57.2653 63.8322 40.5017 147.43 1.7769 7.99704 -90.0981 10.892 3.49249 -0.523906 -0.774419 3.46604 -0.677304 -23.3469 3.48828 0.551271 -3.33422 3.48828 0.551254 98.0456 -40.2642 -89.4601 40.7715 -1.23382 17.468 23.4236 -4.31032 -116.88 96.5148 52.0601 41.5648 46.1048 -82.8065 -135.804 67.8542 -15.3526 -75.9189 -35.643 -25.4504 -19.5619 11.119 -0.0228342 -3.7948 136.078 15.1964 -6.6748 -127.645 12.7176 5.21085 
36.1875 86.1715 -311.785 -31.697 -68.982 -26.4736 164.662 -13.3803 48.4998 -99.765 -6.2605 89.1038 -60.3569 13.4032 9.05159 -2.29246 -23.1141 63.1629 169.016 56.1861 108.667 -32.8099 25.7567 1.12676 38.9532 18.1417 62.9368 64.777 42.6275 148.221 1.73355 7.97854 -90.0191 10.9264 3.44258 -0.363429 -0.740116 3.42324 -0.514786 -23.3111 3.39246 0.689245 -3.29841 3.39246 0.689228 98.0165 -39.4871 -89.5905 42.6507 -1.64042 19.3471 22.1973 -4.34228 -118.57 92.4535 52.6238 45.1479 52.37 -82.7526 -129.789 69.5366 -16.8161 -75.6563 -37.9393 -25.6441 -20.239 12.8207 -0.214826 -5.3011 136.287 15.5085 -7.16706 -128.225 12.101 6.12863 
35.8524 85.6522 -315.347 -30.6647 -68.6476 -26.2863 165.414 -16.0291 46.2865 -95.3754 -5.63089 89.6469 -65.7573 11.5936 11.1284 1.78264 -21.771 64.9435 170.207 56.4093 107.833 -27.8949 36.0591 -0.226283 31.9731 16.6903 69.4678 79.5034 53.4908 136.351 1.66259 7.94944 -89.8909 10.9804 3.36045 -0.103044 -0.686234 3.35266 -0.251024 -23.2545 3.23589 0.912745 -3.24188 3.2359 0.912754 97.9773 -38.2646 -89.7891 45.7214 -2.25544 22.3085 20.328 -4.29392 -121.189 86.9119 53.297 50.2299 61.7208 -82.5144 -120.828 71.2574 -19.2848 -75.5527 -41.1509 -25.2438 -20.4973 15.2949 -0.572293 -7.47193 136.607 15.9988 -7.92588 -129.111 11.1792 7.5092 
35.3983 84.9562 -320.064 -29.3039 -68.2072 -26.1043 165.947 -19.4939 43.862 -88.2617 -3.73406 90.2897 -73.4534 8.83627 14.4059 7.85175 -19.5817 67.6482 172.096 56.1199 106.448 -19.2488 48.7066 -2.46483 23.3813 12.6292 74.0295 130.114 60.593 88.0699 1.56431 7.91096 -89.7157 11.0518 3.2458 0.25337 -0.615044 3.25379 0.11011 -23.1792 3.01945 1.21802 -3.16652 3.01945 1.21802 97.9372 -36.6625 -90.0388 49.9598 -3.00327 26.1748 17.9039 -3.98923 -124.537 80.9293 53.9013 55.9723 72.5725 -81.9599 -110.478 71.2788 -23.0036 -76.4569 -44.4893 -23.3884 -18.6719 18.2033 -1.13034 -10.094 137.012 16.6344 -8.88912 -130.23 10.0622 9.20238 
35.0568 84.2038 -325.722 -35.7374 -71.2735 -29.6017 169.599 -29.5359 45.259 -76.5459 -0.584622 90.1867 -83.4639 2.42842 20.9374 16.2417 -16.1485 71.6311 173.338 50.5671 109.077 -4.93897 63.9102 -6.12485 15.2598 6.64059 73.8457 166.36 45.4309 51.8127 1.59992 8.32761 -89.92 10.3035 3.22632 -0.293968 -1.3624 3.2102 -0.435835 -23.9369 3.16525 0.690216 -3.9242 3.16525 0.690225 97.9043 -34.7495 -90.3233 55.3313 -3.78817 30.7281 14.9762 -3.1928 -128.368 75.2441 54.3584 61.684 83.1581 -81.0289 -100.479 66.5641 -28.2997 -80.4314 -47.3216 -19.4893 -11.7807 21.286 -1.94076 -13.1851 136.859 17.6081 -10.0393 -135.742 8.01799 11.6283 
34.9241 83.9455 -332.984 -148.357 -78.2677 -135.172 -174.621 -60.8061 59.1374 -7.09438 1.57349 86.1095 -84.4081 0.381249 84.4905 28.1648 -9.68504 80.0099 176.664 27.4436 108.185 7.21267 76.7938 -15.2049 10.7572 3.67016 73.0476 173.914 31.6851 41.938 1.88773 11.065 -91.0075 4.8248 3.34561 -1.83603 -6.84201 3.26151 -1.98158 -29.4185 3.74258 -0.744574 -9.40587 3.74257 -0.744588 97.8847 -32.5995 -90.6277 61.7503 -4.4994 35.7051 11.6235 -1.67088 -132.375 70.3029 54.6696 66.8666 92.2872 -79.7565 -91.9911 51.2189 -34.1798 -92.2859 -50.5648 -3.87169 -1.54965 24.4902 -3.11439 -16.9755 137.515 18.3553 -11.1759 -136.037 7.05166 13.3091 
33.8477 83.1576 -340.91 -152.407 -73.1513 -148.277 162.388 -68.6413 35.2041 137.38 -9.60001 100.204 -53.7418 -7.75315 -173.723 41.306 -25.4401 110.252 176.918 25.5694 102.675 25.3522 80.1665 -33.9498 7.83615 0.818674 72.0245 173.081 25.3826 39.4356 1.43584 11.7221 -89.818 3.41606 2.9421 0.356072 -8.25171 2.95492 0.22611 -30.809 2.69899 1.22446 -10.7964 2.69899 1.22444 97.8814 -30.2924 -90.9409 69.0446 -5.02702 40.8113 7.98182 0.726286 -136.204 66.3207 54.8738 71.2119 99.5863 -78.2398 -85.3589 18.7924 -32.5563 -117.191 -42.9783 39.7581 0.0478723 28.1854 -4.62302 -20.8283 138.172 19.0861 -12.3442 -136.626 6.1181 14.9862 
33.1683 82.0346 -348.431 -155.043 -73.9175 -149.264 168.837 -72.6862 41.7169 -25.4544 10.0949 70.1294 48.3604 44.0484 115.583 -24.7719 31.3591 -35.1362 177.7 29.5125 104.011 86.4727 84.1248 -94.5248 6.19273 -0.332521 69.9799 170.542 22.3461 38.7851 1.37978 11.6876 -89.9329 3.49559 2.78337 0.1396 -8.17237 2.78681 0.0168598 -30.7293 2.61265 0.970233 -10.7166 2.61264 0.970233 97.8935 -27.9077 -91.256 76.9544 -5.29048 45.7713 4.22283 3.99661 -139.529 63.333 55.0161 74.5947 105.203 -76.5911 -80.4059 -16.1272 -11.4937 -139.752 -11.9313 70.4969 -0.0532705 32.5898 -5.57768 -21.6748 138.856 19.7201 -13.4947 -137.164 5.31276 16.5464 
32.4129 80.8513 -356.336 -158.193 -74.3536 -151.123 176.782 -74.571 51.5262 -58.045 22.0781 77.1764 70.1261 -41.8599 169.893 70.9656 -14.9519 -36.3192 178.438 33.1369 104.551 134.563 80.4614 -142.065 5.51894 -1.07047 67.5797 167.515 21.167 39.0048 1.29584 11.6899 -89.999 3.49241 2.58928 0.00970684 -8.17595 2.58719 -0.104352 -30.7304 2.46657 0.787917 -10.7178 2.46657 0.787922 97.9183 -25.5185 -91.5695 85.1748 -5.2616 50.3769 0.494683 7.99295 -142.124 61.267 55.1307 77.0239 109.457 -74.9099 -76.7892 -39.3338 16.7942 -146.002 20.0569 84.9829 0.34254 36.5071 -5.20814 -18.8033 139.543 20.2026 -14.5968 -137.64 4.63665 17.9569 
31.6384 79.6271 -364.401 -161.844 -74.6984 -153.553 -167.532 -75.6566 67.7363 -148.463 23.4957 111.058 118.182 -1.20274 -94.5643 50.5605 -13.7078 -72.7619 179.161 36.5806 104.421 151.065 75.5706 -158.138 5.61896 -1.40801 65.1846 164.583 20.828 39.5756 1.19503 11.7027 -90.0567 3.46828 2.36483 -0.103097 -8.20052 2.358 -0.207147 -30.7522 2.28643 0.61279 -10.7395 2.28643 0.612775 97.9508 -23.1898 -91.8817 93.4025 -4.96288 54.5009 -3.11247 12.48 -143.882 59.9928 55.2335 78.5903 112.652 -73.276 -74.1843 -55.1688 36.8927 -142.556 -136.975 86.8909 178.937 39.1033 -4.27254 -15.3846 140.197 20.5454 -15.6476 -138.184 4.11434 19.2164 
30.7957 78.3924 -372.467 -166.053 -74.8742 -156.781 -152.065 -78.5624 95.0946 -94.8617 52.8055 79.2113 -131.321 -23.1366 -123.46 138.786 18.2492 11.392 179.881 39.7095 103.566 159.422 71.3013 -166.366 6.28658 -1.40586 63.0536 161.938 20.8473 40.2651 1.06795 11.7334 -90.0893 3.40762 2.09805 -0.165956 -8.26165 2.08871 -0.258186 -30.81 2.05087 0.472526 -10.7973 2.05089 0.472531 97.985 -20.9777 -92.1958 101.379 -4.45025 58.095 -6.56475 17.2038 -144.803 59.3573 55.325 79.4286 115.03 -71.7501 -72.3334 -66.2931 48.1441 -136.301 -125.331 82.2077 179.482 40.839 -3.43476 -12.8017 140.796 20.7976 -16.6665 -138.901 3.808 20.3356 
29.8951 77.1875 -380.363 -170.865 -74.8417 -160.992 -62.3562 -81.7032 -165.715 -33.0396 58.3095 39.4003 -96.5077 -32.651 -94.1219 129.115 16.6617 31.7125 -179.373 42.4064 102.054 164.453 67.7463 -171.56 7.20159 -1.17995 61.2542 159.627 21.0102 40.9655 0.903493 11.7844 -90.084 3.30538 1.77162 -0.154586 -8.36438 1.7631 -0.232421 -30.9089 1.73614 0.385186 -10.8963 1.73614 0.385171 98.0149 -18.9254 -92.517 108.928 -3.79135 61.1741 -9.8742 21.9553 -144.953 59.2161 55.4004 79.6824 116.778 -70.3738 -71.0408 -73.4227 54.2529 -130.767 -118.82 79.8843 179.576 42.1206 -2.75038 -10.867 141.324 20.8224 -17.608 -139.562 3.56905 21.3154 
28.9904 76.0322 -387.969 -176.267 -74.6142 -166.178 -53.1527 -76.0756 -154.994 -24.1504 51.4605 30.1968 -74.9692 -32.7447 -80.0633 122.765 19.5465 37.2373 -178.624 44.542 100.214 166.956 64.6881 -174.117 7.99077 -0.969297 59.5667 157.642 21.2205 41.6266 0.696804 11.8498 -90.0432 3.17428 1.3749 -0.0745863 -8.49596 1.37028 -0.135041 -31.0367 1.33374 0.34216 -11.0241 1.33374 0.342142 98.0353 -17.0622 -92.8498 115.95 -3.04671 63.7848 -13.0827 26.5926 -144.415 59.4511 55.4549 79.4779 118.034 -69.1714 -70.1624 -77.1548 57.694 -127.127 -115.462 79.157 179.588 43.0911 -2.16314 -9.3142 141.75 20.5845 -18.4607 -140.16 3.31777 22.18 
